<svg xmlns="http://www.w3.org/2000/svg" style="display:none">
  <symbol id="i-fire" viewBox="0 0 448 512"><path d="M160.5-26.4c9.3-7.8 23-7.5 31.9 .9 12.3 11.6 23.3 24.4 33.9 37.4 13.5 16.5 29.7 38.3 45.3 64.2 5.2-6.8 10-12.8 14.2-17.9 1.1-1.3 2.2-2.7 3.3-4.1 7.9-9.8 17.7-22.1 30.8-22.1 13.4 0 22.8 11.9 30.8 22.1 1.3 1.7 2.6 3.3 3.9 4.8 10.3 12.4 24 30.3 37.7 52.4 27.2 43.9 55.6 106.4 55.6 176.6 0 123.7-100.3 224-224 224S0 411.7 0 288c0-91.1 41.1-170 80.5-225 19.9-27.7 39.7-49.9 54.6-65.1 8.2-8.4 16.5-16.7 25.5-24.2zM225.7 416c25.3 0 47.7-7 68.8-21 42.1-29.4 53.4-88.2 28.1-134.4-4.5-9-16-9.6-22.5-2l-25.2 29.3c-6.6 7.6-18.5 7.4-24.7-.5-17.3-22.1-49.1-62.4-65.3-83-5.4-6.9-15.2-8-21.5-1.9-18.3 17.8-51.5 56.8-51.5 104.3 0 68.6 50.6 109.2 113.7 109.2z"/></symbol>
  <symbol id="i-laugh" viewBox="0 0 512 512"><path d="M256 512a256 256 0 1 0 0-512 256 256 0 1 0 0 512zM386.7 308.9c11.9-3.7 23.9 6.3 19.6 18.1-22.4 61.3-81.3 105.1-150.3 105.1S128.1 388.2 105.7 326.9c-4.3-11.8 7.7-21.8 19.6-18.1 39.2 12.2 83.7 19.1 130.7 19.1s91.5-6.9 130.7-19.1zM176 180c-15.5 0-28 12.5-28 28l0 8c0 11-9 20-20 20s-20-9-20-20l0-8c0-37.6 30.4-68 68-68s68 30.4 68 68l0 8c0 11-9 20-20 20s-20-9-20-20l0-8c0-15.5-12.5-28-28-28zm132 28l0 8c0 11-9 20-20 20s-20-9-20-20l0-8c0-37.6 30.4-68 68-68s68 30.4 68 68l0 8c0 11-9 20-20 20s-20-9-20-20l0-8c0-15.5-12.5-28-28-28s-28 12.5-28 28z"/></symbol>
  <symbol id="i-trophy" viewBox="0 0 384 512"><path d="M32 32C32 14.3 46.3 0 64 0L320 0c17.7 0 32 14.3 32 32s-14.3 32-32 32l-29.5 0 10.3 134.1c37.1 21.2 65.8 56.4 78.2 99.7l3.8 13.4c2.8 9.7 .8 20-5.2 28.1S362 352 352 352L32 352c-10 0-19.5-4.7-25.5-12.7s-8-18.4-5.2-28.1L5 297.8c12.4-43.3 41-78.5 78.2-99.7L93.5 64 64 64C46.3 64 32 49.7 32 32zM160 400l64 0 0 112c0 17.7-14.3 32-32 32s-32-14.3-32-32l0-112z"/></symbol>
  <symbol id="i-comments" viewBox="0 0 576 512"><path d="M384 144c0 97.2-86 176-192 176-26.7 0-52.1-5-75.2-14L35.2 349.2c-9.3 4.9-20.7 3.2-28.2-4.2s-9.2-18.9-4.2-28.2l35.6-67.2C14.3 220.2 0 183.6 0 144 0 46.8 86-32 192-32S384 46.8 384 144zm0 368c-94.1 0-172.4-62.1-188.8-144 120-1.5 224.3-86.9 235.8-202.7 83.3 19.2 145 88.3 145 170.7 0 39.6-14.3 76.2-38.4 105.6l35.6 67.2c4.9 9.3 3.2 20.7-4.2 28.2s-18.9 9.2-28.2 4.2L459.2 498c-23.1 9-48.5 14-75.2 14z"/></symbol>
  <symbol id="i-compass" viewBox="0 0 512 512"><path d="M256 512a256 256 0 1 0 0-512 256 256 0 1 0 0 512zm50.7-186.9L162.4 380.6c-19.4 7.5-38.5-11.6-31-31l55.5-144.3c3.3-8.5 9.9-15.1 18.4-18.4l144.3-55.5c19.4-7.5 38.5 11.6 31 31L325.1 306.7c-3.2 8.5-9.9 15.1-18.4 18.4zM288 256a32 32 0 1 0 -64 0 32 32 0 1 0 64 0z"/></symbol>
  <symbol id="i-hashtag" viewBox="0 0 512 512"><path d="M214.7 .7c17.3 3.7 28.3 20.7 24.6 38l-19.1 89.3 126.5 0 22-102.7C372.4 8 389.4-3 406.7 .7s28.3 20.7 24.6 38L412.2 128 480 128c17.7 0 32 14.3 32 32s-14.3 32-32 32l-81.6 0-27.4 128 67.8 0c17.7 0 32 14.3 32 32s-14.3 32-32 32l-81.6 0-22 102.7c-3.7 17.3-20.7 28.3-38 24.6s-28.3-20.7-24.6-38l19.1-89.3-126.5 0-22 102.7c-3.7 17.3-20.7 28.3-38 24.6s-28.3-20.7-24.6-38L99.8 384 32 384c-17.7 0-32-14.3-32-32s14.3-32 32-32l81.6 0 27.4-128-67.8 0c-17.7 0-32-14.3-32-32s14.3-32 32-32l81.6 0 22-102.7C180.4 8 197.4-3 214.7 .7zM206.4 192l-27.4 128 126.5 0 27.4-128-126.5 0z"/></symbol>
  <symbol id="i-calendar" viewBox="0 0 448 512"><path d="M128 0C110.3 0 96 14.3 96 32l0 32-32 0C28.7 64 0 92.7 0 128l0 48 448 0 0-48c0-35.3-28.7-64-64-64l-32 0 0-32c0-17.7-14.3-32-32-32s-32 14.3-32 32l0 32-128 0 0-32c0-17.7-14.3-32-32-32zM0 224L0 416c0 35.3 28.7 64 64 64l320 0c35.3 0 64-28.7 64-64l0-192-448 0z"/></symbol>
  <symbol id="i-people" viewBox="0 0 576 512"><path d="M64 128a112 112 0 1 1 224 0 112 112 0 1 1 -224 0zM0 464c0-97.2 78.8-176 176-176s176 78.8 176 176l0 6c0 23.2-18.8 42-42 42L42 512c-23.2 0-42-18.8-42-42l0-6zM432 64a96 96 0 1 1 0 192 96 96 0 1 1 0-192zm0 240c79.5 0 144 64.5 144 144l0 22.4c0 23-18.6 41.6-41.6 41.6l-144.8 0c6.6-12.5 10.4-26.8 10.4-42l0-6c0-51.5-17.4-98.9-46.5-136.7 22.6-14.7 49.6-23.3 78.5-23.3z"/></symbol>
</svg>
